<svg width="128" height="128" fill="none" xmlns="http://www.w3.org/2000/svg"><path fill-rule="evenodd" clip-rule="evenodd" d="M128 64c0-42.667-21.333-64-64-64S0 21.333 0 64s21.333 64 64 64 64-21.333 64-64zM14 51c0-6.627 5.373-12 12-12h76c6.627 0 12 5.373 12 12v26c0 6.627-5.373 12-12 12H26c-6.627 0-12-5.373-12-12V51zm26.797 21.672c1.135 0 2.057-.125 2.766-.375 1.343-.48 2.015-1.37 2.015-2.672 0-.76-.333-1.349-1-1.766-.667-.406-1.713-.765-3.14-1.078L39 66.234c-2.396-.541-4.052-1.13-4.969-1.765-1.552-1.063-2.328-2.724-2.328-4.985 0-2.062.75-3.776 2.25-5.14 1.5-1.365 3.703-2.047 6.61-2.047 2.427 0 4.494.646 6.203 1.937 1.718 1.282 2.62 3.146 2.703 5.594h-4.625c-.084-1.385-.688-2.37-1.813-2.953-.75-.385-1.682-.578-2.797-.578-1.24 0-2.229.25-2.968.75-.74.5-1.11 1.198-1.11 2.094 0 .823.365 1.437 1.094 1.843.469.271 1.469.589 3 .953l3.969.954c1.74.416 3.052.974 3.937 1.672 1.375 1.083 2.063 2.65 2.063 4.703 0 2.104-.808 3.854-2.422 5.25-1.604 1.385-3.875 2.078-6.813 2.078-3 0-5.359-.682-7.078-2.047-1.718-1.375-2.578-3.26-2.578-5.656h4.594c.146 1.052.432 1.838.86 2.359.78.948 2.119 1.422 4.015 1.422zm11.281-19.703h5.14l5 17.484 5.048-17.484h5L64.406 76H59.86l-7.78-23.031zM89.25 75.437c-1.27.782-2.833 1.172-4.688 1.172-3.052 0-5.552-1.057-7.5-3.171-2.03-2.126-3.046-5.032-3.046-8.72 0-3.728 1.026-6.718 3.078-8.968 2.052-2.25 4.765-3.375 8.14-3.375 2.928 0 5.276.745 7.047 2.234 1.781 1.48 2.802 3.328 3.063 5.547h-4.735c-.364-1.573-1.255-2.672-2.671-3.297-.792-.343-1.672-.515-2.641-.515-1.854 0-3.38.703-4.578 2.11-1.188 1.395-1.781 3.5-1.781 6.312 0 2.833.645 4.838 1.937 6.015 1.292 1.177 2.76 1.766 4.406 1.766 1.615 0 2.938-.464 3.969-1.39 1.031-.938 1.667-2.162 1.906-3.673h-5.328v-3.843h9.594V76h-3.188l-.484-2.875c-.927 1.094-1.76 1.865-2.5 2.313z" fill="#000"/></svg>