<svg width="1024" height="1024" fill="none" xmlns="http://www.w3.org/2000/svg"><path fill-rule="evenodd" clip-rule="evenodd" d="M512 0c341.333 0 512 170.667 512 512 0 341.333-170.667 512-512 512C170.667 1024 0 853.333 0 512 0 170.667 170.667 0 512 0Zm198.98 301.819 23.899-41.34c8.09-13.953 3.266-31.84-10.688-39.93-14.027-8.09-31.839-3.265-39.929 10.688l-29.242 50.617c-3.192 5.566-3.86 11.652-3.266 17.59H372.246c.594-5.938 0-12.024-3.266-17.59l-29.168-50.691c-8.089-13.954-25.976-18.778-39.929-10.688-13.953 8.09-18.778 25.977-10.688 39.93l23.899 41.34c-53.289 10.91-93.293 58.039-93.293 114.519v233.863c0 64.571 52.324 116.895 116.894 116.895h350.758c64.57 0 116.895-52.324 116.895-116.895V416.338c-.075-56.48-40.078-103.609-93.368-114.519Zm34.883 348.308c0 32.211-26.199 58.485-58.484 58.485H336.621c-32.211 0-58.484-26.2-58.484-58.485V416.338c0-32.211 26.199-58.484 58.484-58.484h350.758c32.211 0 58.484 26.199 58.484 58.484v233.789ZM161.242 445.506c-16.179 0-29.242 13.137-29.242 29.242v116.895c0 16.18 13.063 29.242 29.242 29.242 16.18 0 29.242-13.062 29.242-29.242V474.748c0-16.105-13.136-29.242-29.242-29.242Zm701.516 0c-16.18 0-29.242 13.063-29.242 29.242v116.895c0 16.18 13.062 29.242 29.242 29.242S892 607.823 892 591.643V474.748c0-16.105-13.062-29.242-29.242-29.242ZM379.344 546.402a43.864 43.864 0 0 1-4.054-41.154 43.861 43.861 0 0 1 40.525-27.078 43.853 43.853 0 0 1 31.016 12.847 43.873 43.873 0 0 1 9.508 47.802 43.877 43.877 0 0 1-23.739 23.739 43.87 43.87 0 0 1-33.571 0 43.874 43.874 0 0 1-19.685-16.156Zm197.829 9.244a43.86 43.86 0 0 1 0-62.031 43.862 43.862 0 0 1 74.879 31.016 43.86 43.86 0 0 1-12.848 31.015 43.86 43.86 0 0 1-62.031 0Z" fill="#000"/></svg>